# xmcd
#
# Track frame offsets:
#	150
#	49339
#	100875
#	148562
#	202487
#	251040
#
# Disc length: 3994 seconds
#
# Revision: 0
# Processed by: cddbd v1.5.2PL0 Copyright (c) Steve Scherf et al.
# Submitted via: audiograbber 1.83.01
#
DISCID=5e0f9806
DTITLE=DCI Finale 1995 - DCI Finale
DYEAR=1995
DGENRE=Drum Core
TTITLE0=Cavaliers
TTITLE1=Cadets
TTITLE2=Blue Devils 
TTITLE3=Madison Scouts 
TTITLE4=Phantom Regiment
TTITLE5=Santa Clara Vanguard 
EXTD=
EXTT0=
EXTT1=
EXTT2=
EXTT3=
EXTT4=
EXTT5=
PLAYORDER=
